<svg id="flower" xmlns="http://www.w3.org/2000/svg" width="144.411" height="57.965" viewBox="0 0 144.411 57.965">
  <g id="Group_24" data-name="Group 24" transform="translate(-741.916 -4126.401)">
    <g id="Group_22" data-name="Group 22" transform="translate(886.327 4154.723) rotate(150)">
      <path id="Path_4" data-name="Path 4" d="M22.848,20.491s-8.1.663-11.181-4.963S3.956,2.582,3.328,2.31,0,0,0,0,6.005,1.244,9.8,5.117,22.848,20.491,22.848,20.491Z" transform="translate(36.256 12.188)" fill="#95c94a"/>
      <g id="Group_21" data-name="Group 21" transform="translate(0 0)">
        <path id="Path_5" data-name="Path 5" d="M0,0S11.063,9.8,15.019,10.565,24.4,11.7,27.243,9.653s5.046-3.482,5.046-3.482-8.872.7-11.43,0S9.843,2.357,8.185,1.611,0,0,0,0Z" transform="translate(17.992 19.614)" fill="#95c94a"/>
        <path id="Path_6" data-name="Path 6" d="M9.9,9.085a5.022,5.022,0,0,1-6.811-2A34.028,34.028,0,0,1,0,0S7.675.521,8.244,1.256s2.594,4.8,2.594,4.8Z" transform="translate(3.601 1.433)" fill="#feee79"/>
        <path id="Path_7" data-name="Path 7" d="M10.565,11.6S5.4,13.681,3.459,9.606A67.621,67.621,0,0,1,0,0S6.7-.059,8.706,2.061A10.236,10.236,0,0,1,11.24,8.256,5.45,5.45,0,0,1,10.565,11.6Z" transform="translate(21.853 0.473)" fill="#f48ca7"/>
        <path id="Path_8" data-name="Path 8" d="M16.511,4.114a18.16,18.16,0,0,0-2.428-2.2C12.212.5,9.606-.813,7.509.62,2.511,2.2,0,9.231,0,9.231s6.609,3.032,10.021,2.262S16.511,4.114,16.511,4.114Z" transform="translate(0 19.077)" fill="#fcaa0d"/>
        <path id="Path_9" data-name="Path 9" d="M34.385,11.7s-9.831-.071-12.2-.841S8.741,4.77,6.432,4.107A40.827,40.827,0,0,0,0,3.159S6.408-.371,11.2.032s9.926,2.653,13.017,4.323S34.385,11.7,34.385,11.7Z" transform="translate(10.151 11.694)" fill="#6b9800"/>
        <path id="Path_10" data-name="Path 10" d="M11.774,0A10.558,10.558,0,0,0,5.709,2.973,66.239,66.239,0,0,1,0,8.421S.723,7.7,4.868,6.929,7.628,3.447,9.274,2.12L10.921.794" transform="translate(6.633 21.888)" fill="#95c94a"/>
        <path id="Path_11" data-name="Path 11" d="M19.874,21.13a.761.761,0,0,0-.367-.6c-.5-.332-.876-.912-1.552-.912-.178,0-.249-.237-.225-.426s.178-.154.284-.142c.628.059,1.256.118,1.883.19.308.036.32.178.095.628a6.045,6.045,0,0,0,1.386.746,37.592,37.592,0,0,1,3.364,1.9,58.668,58.668,0,0,0,6.6,3.624,25.983,25.983,0,0,0,6.278,1.931,10.938,10.938,0,0,0,3.044.154,3.193,3.193,0,0,1-1.907.19,24.663,24.663,0,0,1-4.6-.912A30.953,30.953,0,0,1,30,25.785a40.737,40.737,0,0,1-4.6-2.558c-1.386-.876-2.8-1.682-4.229-2.428a.942.942,0,0,0-.77-.166.615.615,0,0,0,.272.509c1.22,1.137,2.416,2.322,3.684,3.388a29.552,29.552,0,0,0,8.279,5.212,12.829,12.829,0,0,0,3.482.865A19.572,19.572,0,0,0,39.24,30.5a13.016,13.016,0,0,0,4.169-1.338,16.9,16.9,0,0,0,3.328-2.025.8.8,0,0,1,.391-.154c.225-.047.284-.225.237-.45-.059-.249-.19-.426-.438-.343-.77.225-1.575.107-2.357.261a11.306,11.306,0,0,1-2.452.024,21.509,21.509,0,0,1-4.311-.687c-.924-.225-1.836-.521-2.748-.77a8.782,8.782,0,0,1-.888-.308c-1.741-.687-3.494-1.386-5.235-2.085-1.042-.426-2.108-.794-3.127-1.279-1.208-.569-2.476-.865-3.7-1.3a10.928,10.928,0,0,0-1.267-.272c-.118-.024-.237-.071-.355-.107a.169.169,0,0,1-.107-.154c0-.13.095-.13.166-.118.343.071.687.118,1.03.213.711.213,1.421.45,2.132.675a6.251,6.251,0,0,0,.782.19c.107.024.19-.047.237-.166.036-.095-.024-.166-.071-.249a1.068,1.068,0,0,0-.5-.391c-2.179-1.173-4.43-2.12-6.657-3.151a18.138,18.138,0,0,0-5.662-1.54c-.569-.071-1.137-.047-1.717-.118a3.349,3.349,0,0,0-1.019.178c-.154.036-.343.059-.379-.2-.024-.213.142-.237.284-.261a13.633,13.633,0,0,0,3.98-1.552,11.317,11.317,0,0,1,1.611-.569c.095-.036.2-.036.249-.166a.53.53,0,0,0-.2-.391c-.2-.237-.4-.462-.6-.7s-.355-.6-.58-.675c-.272-.083-.4.367-.651.5a1.693,1.693,0,0,1-.509.2,4.823,4.823,0,0,1-3.2-.308A5.515,5.515,0,0,1,6.951,9.475,13.99,13.99,0,0,1,4.5,4.761c-.332-1.1-.557-2.239-.924-3.328A.7.7,0,0,1,3.517.971c.036-.19.118-.32.332-.284,1.706.284,3.435.3,5.117.734a7.374,7.374,0,0,1,4.169,2.9A8.424,8.424,0,0,1,14.4,7.485a2.524,2.524,0,0,1-.237,1.824,1.2,1.2,0,0,0,.095,1.421c.237.32.4.687.651,1.007a.9.9,0,0,0,1.042.367,17.027,17.027,0,0,1,4.086-.592,25.783,25.783,0,0,1,3.174.036,11.607,11.607,0,0,1,3.944,1.007c1.113.5,2.25.865,3.364,1.386a30.025,30.025,0,0,1,3.814,2.12c1.054.687,2.085,1.41,3.115,2.12a1.379,1.379,0,0,0,.261.118.665.665,0,0,0-.284-.58,33,33,0,0,1-4.513-5.389.5.5,0,0,0-.533-.261c-.118.024-.225.095-.367.036a18.894,18.894,0,0,0,1.03-3.376,5.847,5.847,0,0,0-1.54-5.022,7.186,7.186,0,0,0-1.836-1.4,21.851,21.851,0,0,0-2.618-1.22A8.109,8.109,0,0,0,24.41.462,3.388,3.388,0,0,0,22.574.7c.047.225.213.225.332.3,1.741,1.042,3.613,1.812,5.342,2.89A7.4,7.4,0,0,1,29.811,5a1.377,1.377,0,0,1,.213.237c.024.036-.012.13-.036.178a.114.114,0,0,1-.166.024.715.715,0,0,1-.095-.095,16.153,16.153,0,0,0-3.98-2.5c-.876-.45-1.753-.936-2.629-1.386-.2-.107-.426-.343-.616-.2-.249.178.012.45.059.675a38.815,38.815,0,0,0,1.362,4.75,11.04,11.04,0,0,0,1.812,3.4,5.812,5.812,0,0,0,2.783,1.848,3.25,3.25,0,0,0,1.741.13.573.573,0,0,1-.628.261,6.143,6.143,0,0,1-2.025-.509,5.693,5.693,0,0,1-2.333-1.741,12.883,12.883,0,0,1-1.6-2.772,11.714,11.714,0,0,1-.355-1.3c-.213-.687-.462-1.374-.675-2.061A25.038,25.038,0,0,0,21.84.995a1.015,1.015,0,0,1-.024-.533c.071-.521.071-.509.521-.4a3.748,3.748,0,0,0,1.4.107,6.5,6.5,0,0,1,2.772.4,12.856,12.856,0,0,1,2.926,1.3c.367.225.723.438,1.09.651A5.02,5.02,0,0,1,32.145,4.1a6.318,6.318,0,0,0,.379.545,5.55,5.55,0,0,1,1.03,3.222,7.232,7.232,0,0,1-.012,1.824,2.771,2.771,0,0,1-.225.829,2.118,2.118,0,0,0,.3,2.31,34.679,34.679,0,0,0,4.063,4.643,5.887,5.887,0,0,0,.995.817c1.078.687,1.966,1.682,3.02,2.416.107.071.2.166.308.225.9.474,1.777.983,2.63,1.54.047.036.118.024.178.036-.036-.628-.3-1.125-1.575-3.293a17.233,17.233,0,0,0-2.156-3.02,33.779,33.779,0,0,0-2.606-2.44,10.692,10.692,0,0,0-2.961-2c.32-.343.592-.2.876-.095,1.113.426,2.215.876,3.34,1.244a24.821,24.821,0,0,1,2.63,1.184c.308.142.616.261.912.415a14.719,14.719,0,0,1,4.844,3.861c.628.758,1.279,1.492,1.871,2.3.036.059.095.095.118.154.545,1.291,1.492,2.31,2.108,3.553a7.82,7.82,0,0,0,.9,1.4c.545.7.995,1.469,1.5,2.191a11.749,11.749,0,0,0,3.364,3.3c.379.237.77.45,1.149.675.071.047.142.107.118.213a.151.151,0,0,1-.19.118,16.683,16.683,0,0,1-4.252-.545,17.126,17.126,0,0,1-3.672-1.611,8.034,8.034,0,0,1-2.807-2.558c-.083-.13-.166-.261-.261-.391a.305.305,0,0,0-.438-.083,20.571,20.571,0,0,0-1.871,1.173,11.81,11.81,0,0,1-3.009,1.528c-.486.154-.936.415-1.421.557a14.144,14.144,0,0,1-7.273.142,9.467,9.467,0,0,1-1.066-.367,26.381,26.381,0,0,1-7.237-4.157,58.8,58.8,0,0,1-4.56-4.039.613.613,0,0,0-.817-.178,16.981,16.981,0,0,1-1.99.794,5.319,5.319,0,0,0-1.54,1.03,12.478,12.478,0,0,0-1.41,1.635,6.141,6.141,0,0,0-.557,1.03,8.432,8.432,0,0,1-2.156,2.191,5.366,5.366,0,0,1-1.789.924,14.073,14.073,0,0,1-4.347.888,8.848,8.848,0,0,1-1.824-.284,11.46,11.46,0,0,0-1.279-.178,7.457,7.457,0,0,1-1.907-.557c-.355-.13-.7-.284-1.054-.391a.634.634,0,0,1-.438-.924c.628-1.066.936-2.31,1.469-3.423a7.918,7.918,0,0,1,1.4-1.99,23.89,23.89,0,0,1,1.706-1.753,5.6,5.6,0,0,1,2.937-1.445c.557-.071,1.113-.213,1.682-.272a6.568,6.568,0,0,1,4.051,1.1,13,13,0,0,1,1.563,1.232,1.148,1.148,0,0,0,1.149.261,8.664,8.664,0,0,1,2.4-.332A2.92,2.92,0,0,0,19.874,21.13ZM42.9,22.1a.42.42,0,0,0-.284-.355c-.853-.509-1.729-.971-2.558-1.54-1.706-1.173-3.447-2.286-5.141-3.47a28.625,28.625,0,0,0-6.941-3.589,25.7,25.7,0,0,0-3.423-1.125,26.767,26.767,0,0,0-5.674-.261,12.6,12.6,0,0,0-3.222.675c-.32.083-.64.059-.948.154-1.09.32-2.037.959-3.091,1.35a1.965,1.965,0,0,0-.592.45c-.154.142-.095.284.083.343a.405.405,0,0,0,.237.012,4.463,4.463,0,0,1,2.357.261,1.764,1.764,0,0,0,.545.142,7.264,7.264,0,0,1,2.31.663c.782.272,1.516.711,2.3,1.019.888.355,1.765.77,2.641,1.161,1.706.782,3.364,1.729,5.081,2.487a51.98,51.98,0,0,0,5.733,2.085,19.8,19.8,0,0,0,6.74.865c1.5-.071,3-.332,4.5-.284.107,0,.213-.036.2-.178-.012-.118-.118-.178-.213-.213-1.019-.343-2.049-.651-3.08-.959s-2.085-.509-3.127-.77c-1.8-.462-3.6-.936-5.389-1.469a26.688,26.688,0,0,1-4.217-1.765,29.635,29.635,0,0,0-4.738-2.108,27.669,27.669,0,0,0-3.743-.782,24.924,24.924,0,0,0-2.807-.237c-.651-.024-1.3-.095-1.954-.107-.13,0-.343,0-.332-.2s.2-.154.343-.154a.229.229,0,0,1,.118.036,5.987,5.987,0,0,0,1.575.249,34.578,34.578,0,0,1,4.927.509c.391.095.794.166,1.2.272a18.8,18.8,0,0,1,3.328,1.161,9.917,9.917,0,0,1,1.623.817,2.668,2.668,0,0,0,.711.4c1.3.415,2.487,1.173,3.8,1.587,1.386.438,2.783.758,4.169,1.2s2.831.723,4.252,1.078c.486.118.959.237,1.433.391A2.7,2.7,0,0,0,42.9,22.1Zm-27.7.19a.3.3,0,0,0-.142-.332c-.4-.332-.782-.687-1.2-.983a8.012,8.012,0,0,0-3.506-1.635,5.978,5.978,0,0,0-1.457.024,6.218,6.218,0,0,0-4.063,1.658c-.3.3-.58.6-.9.876a8.377,8.377,0,0,0-2.44,3.47A11.377,11.377,0,0,0,.769,27.42c-.024.13-.095.272.024.379s.225,0,.343-.047c.415-.142.663-.557,1.03-.782a5.147,5.147,0,0,0,1.481-1.635,6.476,6.476,0,0,1,1.871-1.812,9.249,9.249,0,0,1,2.843-1.41,12.363,12.363,0,0,1,2.25-.509.747.747,0,0,1,.426.012c.071.036.166.083.154.178s-.083.142-.178.142a4.25,4.25,0,0,0-1.445.178,11.676,11.676,0,0,0-2.712.936c-.687.355-1.279.9-1.943,1.315a2.082,2.082,0,0,0-.6.64A12.363,12.363,0,0,1,1.787,27.74c-.225.178-.474.32-.723.486-.095.059-.178.118-.178.249a.242.242,0,0,0,.19.237c.557.178,1.066.474,1.635.628,1.149.3,2.31.379,3.459.58a1.013,1.013,0,0,0,.817-.2c.723-.64,1.516-1.173,2.191-1.871a21.878,21.878,0,0,1,3.115-3,1.916,1.916,0,0,0,.213-.225,4.134,4.134,0,0,1,2.073-1.41,3.744,3.744,0,0,0,.509-.19c.083-.036.154-.095.118-.19a.189.189,0,0,0-.19-.142,5.889,5.889,0,0,0-2.547.533c-.545.3-1.1.545-1.646.829-.083.047-.178.13-.272-.071.438-.379,1.019-.474,1.469-.829a4.789,4.789,0,0,1,1.528-.628C14.106,22.362,14.686,22.433,15.2,22.291Zm34.539,2.381a2.306,2.306,0,0,1-.628-.995,14.282,14.282,0,0,0-2.4-3.731,18.222,18.222,0,0,1-1.3-1.563,8.685,8.685,0,0,0-2.12-2.1c-1.149-.817-2.357-1.528-3.542-2.274a4.843,4.843,0,0,0-.616-.272c-.012.272.154.32.249.415.545.533,1.161.971,1.682,1.5a15.618,15.618,0,0,1,2.037,2.594c1.007,1.6,1.8,3.34,2.866,4.9a1.407,1.407,0,0,1,.154.3,7.291,7.291,0,0,0,1.41,2.476,21.9,21.9,0,0,0,2.156,2.736,6.69,6.69,0,0,0,1.658,1.291,20.472,20.472,0,0,0,2.724,1.291c.888.272,1.8.415,2.689.687a2.511,2.511,0,0,0,.734.036c.107,0,.213-.012.261-.13s-.036-.225-.118-.284c-.3-.261-.592-.509-.888-.758a11.646,11.646,0,0,1-2.215-2.3c-1.042-1.563-2.073-3.139-3.068-4.75-1.054-1.706-1.907-3.6-3.411-4.939-.059-.059-.107-.142-.166-.213a12.557,12.557,0,0,0-3.127-2.914,20.752,20.752,0,0,0-4.572-2.25,1.281,1.281,0,0,0-.817-.071c1.09.723,2.049,1.4,3.032,2.014A11.239,11.239,0,0,1,46.062,18.8,11.479,11.479,0,0,0,47.2,20.171,13.38,13.38,0,0,1,49.734,24.672ZM4.63,1.492a14.2,14.2,0,0,1,2.061,2.7q1.048,1.67,2.2,3.234a4.963,4.963,0,0,0,1.516,1.5c.118.071.237.154.178.308-.083.213-.249.095-.355.012a2.374,2.374,0,0,1-.5-.415c-.32-.379-.663-.723-.983-1.125-.58-.723-1.09-1.492-1.611-2.25C6.525,4.6,6,3.66,5.352,2.807c-.32-.426-.711-.77-1.054-1.161-.059-.059-.118-.13-.213-.071s-.071.154-.059.237a3.313,3.313,0,0,0,.071.332,19,19,0,0,0,.723,2.5A15.94,15.94,0,0,0,6.655,8.516a4.082,4.082,0,0,0,1.469,1.54c.308.166.64.3.948.462A4.385,4.385,0,0,0,11.464,11a1.732,1.732,0,0,0,1.007-.19,3.2,3.2,0,0,0,1.469-2.1,3.86,3.86,0,0,0-1.22-3.589,12.232,12.232,0,0,0-2.073-1.516,1.312,1.312,0,0,0-.343-.166A32.209,32.209,0,0,1,6.051,1.788,1.691,1.691,0,0,0,4.63,1.492ZM46.654,25.6a3.294,3.294,0,0,0-.533-1.149A1.7,1.7,0,0,0,44.5,23.393a12.189,12.189,0,0,0-2.629.059,23.031,23.031,0,0,1-2.558.2,19.921,19.921,0,0,1-5.484-.426,44.717,44.717,0,0,1-6.751-2.156c-.308-.118-.616-.272-.912-.415-.166-.071-.332-.095-.4.142s.107.308.261.379a1.229,1.229,0,0,0,.118.047,9.454,9.454,0,0,1,1.966.817c2.025.924,4.11,1.623,6.159,2.452a29.239,29.239,0,0,0,3.565,1.054,22.181,22.181,0,0,0,5.034.734c1.149.024,2.262-.249,3.4-.213A.435.435,0,0,0,46.654,25.6ZM16.617,22.872c-.616.213-1.244.4-1.86.628a4.818,4.818,0,0,0-1.931,1.3c-.118.13-.2.3-.343.367a15.071,15.071,0,0,0-2.452,2.239c-.64.545-1.22,1.2-1.824,1.824-.13.142-.438.237-.308.486s.426.118.616.047a19.039,19.039,0,0,0,2.949-.959,8.482,8.482,0,0,0,2.76-2.274c.367-.474.569-1.09.936-1.54a7.893,7.893,0,0,1,1.623-1.753c.083-.059.178-.142.107-.272A.254.254,0,0,0,16.617,22.872ZM6.632,1.587c.059.19.166.2.261.261A22.384,22.384,0,0,0,9.794,3,10.651,10.651,0,0,1,11.5,3.8a10.16,10.16,0,0,1,1.149.817C11.926,2.783,8.681,1.2,6.632,1.587ZM18.453,21.734a.12.12,0,0,0-.083.154.15.15,0,0,0,.107.047.1.1,0,0,0,.083-.142C18.547,21.758,18.488,21.758,18.453,21.734Z" transform="translate(0.037 0)"/>
      </g>
    </g>
    <g id="Group_23" data-name="Group 23" transform="translate(758.268 4126.401) rotate(30)">
      <path id="Path_4-2" data-name="Path 4" d="M22.848.024s-8.1-.663-11.181,4.963S3.956,17.933,3.328,18.206,0,20.515,0,20.515,6.005,19.272,9.8,15.4,22.848.024,22.848.024Z" transform="translate(36.256 0)" fill="#95c94a"/>
      <g id="Group_21-2" data-name="Group 21" transform="translate(0 0.436)">
        <path id="Path_5-2" data-name="Path 5" d="M0,11.177S11.063,1.381,15.019.611,24.4-.526,27.243,1.523s5.046,3.482,5.046,3.482-8.872-.7-11.43,0S9.843,8.82,8.185,9.566,0,11.177,0,11.177Z" transform="translate(17.992 1.476)" fill="#95c94a"/>
        <path id="Path_6-2" data-name="Path 6" d="M9.9.607a5.022,5.022,0,0,0-6.811,2A34.028,34.028,0,0,0,0,9.691S7.675,9.17,8.244,8.436s2.594-4.8,2.594-4.8Z" transform="translate(3.601 21.143)" fill="#feee79"/>
        <path id="Path_7-2" data-name="Path 7" d="M10.565.533S5.4-1.551,3.459,2.523A67.621,67.621,0,0,0,0,12.129s6.7.059,8.706-2.061A10.236,10.236,0,0,0,11.24,3.873,5.45,5.45,0,0,0,10.565.533Z" transform="translate(21.853 19.665)" fill="#f48ca7"/>
        <path id="Path_8-2" data-name="Path 8" d="M16.511,7.5a18.159,18.159,0,0,1-2.428,2.2C12.212,11.117,9.606,12.432,7.509,11,2.511,9.423,0,2.388,0,2.388S6.609-.645,10.021.125,16.511,7.5,16.511,7.5Z" transform="translate(0 1.571)" fill="#fcaa0d"/>
        <path id="Path_9-2" data-name="Path 9" d="M34.385,0s-9.831.071-12.2.841S8.741,6.929,6.432,7.592A40.827,40.827,0,0,1,0,8.54s6.408,3.53,11.2,3.127,9.926-2.653,13.017-4.323S34.385,0,34.385,0Z" transform="translate(10.151 8.874)" fill="#6b9800"/>
        <path id="Path_10-2" data-name="Path 10" d="M11.774,8.421A10.558,10.558,0,0,1,5.709,5.449,66.239,66.239,0,0,0,0,0S.723.723,4.868,1.492,7.628,4.975,9.274,6.3l1.646,1.327" transform="translate(6.633 1.957)" fill="#95c94a"/>
        <path id="Path_11-2" data-name="Path 11" d="M19.874,11.137a.761.761,0,0,1-.367.6c-.5.332-.876.912-1.552.912-.178,0-.249.237-.225.426s.178.154.284.142c.628-.059,1.256-.118,1.883-.19.308-.036.32-.178.095-.628a6.045,6.045,0,0,1,1.386-.746,37.592,37.592,0,0,0,3.364-1.9,58.67,58.67,0,0,1,6.6-3.624,25.983,25.983,0,0,1,6.278-1.931,10.938,10.938,0,0,1,3.044-.154,3.193,3.193,0,0,0-1.907-.19,24.663,24.663,0,0,0-4.6.912A30.952,30.952,0,0,0,30,6.482a40.738,40.738,0,0,0-4.6,2.558c-1.386.876-2.8,1.682-4.229,2.428a.942.942,0,0,1-.77.166.615.615,0,0,1,.272-.509C21.9,9.988,23.1,8.8,24.363,7.737a29.552,29.552,0,0,1,8.279-5.212,12.829,12.829,0,0,1,3.482-.865,19.572,19.572,0,0,1,3.115.107,13.017,13.017,0,0,1,4.169,1.338,16.9,16.9,0,0,1,3.328,2.025.8.8,0,0,0,.391.154c.225.047.284.225.237.45-.059.249-.19.426-.438.343-.77-.225-1.575-.107-2.357-.261a11.306,11.306,0,0,0-2.452-.024,21.508,21.508,0,0,0-4.311.687c-.924.225-1.836.521-2.748.77a8.781,8.781,0,0,0-.888.308c-1.741.687-3.494,1.386-5.235,2.085-1.042.426-2.108.794-3.127,1.279-1.208.569-2.476.865-3.7,1.3a10.928,10.928,0,0,1-1.267.272c-.118.024-.237.071-.355.107a.169.169,0,0,0-.107.154c0,.13.095.13.166.118.343-.071.687-.118,1.03-.213.711-.213,1.421-.45,2.132-.675a6.251,6.251,0,0,1,.782-.19c.107-.024.19.047.237.166.036.095-.024.166-.071.249a1.068,1.068,0,0,1-.5.391c-2.179,1.173-4.43,2.12-6.657,3.151a18.138,18.138,0,0,1-5.662,1.54c-.569.071-1.137.047-1.717.118a3.349,3.349,0,0,1-1.019-.178c-.154-.036-.343-.059-.379.2-.024.213.142.237.284.261a13.633,13.633,0,0,1,3.98,1.552,11.317,11.317,0,0,0,1.611.569c.095.036.2.036.249.166a.53.53,0,0,1-.2.391c-.2.237-.4.462-.6.7s-.355.6-.58.675c-.272.083-.4-.367-.651-.5a1.693,1.693,0,0,0-.509-.2,4.823,4.823,0,0,0-3.2.308,5.515,5.515,0,0,0-2.156,1.433A13.99,13.99,0,0,0,4.5,27.506c-.332,1.1-.557,2.239-.924,3.328a.7.7,0,0,0-.059.462c.036.19.118.32.332.284,1.706-.284,3.435-.3,5.117-.734a7.374,7.374,0,0,0,4.169-2.9A8.424,8.424,0,0,0,14.4,24.782a2.524,2.524,0,0,0-.237-1.824,1.2,1.2,0,0,1,.095-1.421c.237-.32.4-.687.651-1.007a.9.9,0,0,1,1.042-.367,17.026,17.026,0,0,0,4.086.592,25.783,25.783,0,0,0,3.174-.036,11.607,11.607,0,0,0,3.944-1.007c1.113-.5,2.25-.865,3.364-1.386a30.025,30.025,0,0,0,3.814-2.12c1.054-.687,2.085-1.41,3.115-2.12a1.379,1.379,0,0,1,.261-.118.665.665,0,0,1-.284.58,33,33,0,0,0-4.513,5.389.5.5,0,0,1-.533.261c-.118-.024-.225-.095-.367-.036a18.894,18.894,0,0,1,1.03,3.376,5.847,5.847,0,0,1-1.54,5.022,7.186,7.186,0,0,1-1.836,1.4,21.851,21.851,0,0,1-2.618,1.22,8.109,8.109,0,0,1-2.641.628,3.388,3.388,0,0,1-1.836-.237c.047-.225.213-.225.332-.3,1.741-1.042,3.613-1.812,5.342-2.89a7.4,7.4,0,0,0,1.563-1.113,1.377,1.377,0,0,0,.213-.237c.024-.036-.012-.13-.036-.178a.114.114,0,0,0-.166-.024.714.714,0,0,0-.095.095,16.152,16.152,0,0,1-3.98,2.5c-.876.45-1.753.936-2.629,1.386-.2.107-.426.343-.616.2-.249-.178.012-.45.059-.675a38.813,38.813,0,0,1,1.362-4.75,11.04,11.04,0,0,1,1.812-3.4A5.812,5.812,0,0,1,28.52,20.34a3.25,3.25,0,0,1,1.741-.13.573.573,0,0,0-.628-.261,6.143,6.143,0,0,0-2.025.509A5.693,5.693,0,0,0,25.275,22.2a12.882,12.882,0,0,0-1.6,2.772,11.714,11.714,0,0,0-.355,1.3c-.213.687-.462,1.374-.675,2.061a25.038,25.038,0,0,1-.805,2.937,1.015,1.015,0,0,0-.024.533c.071.521.071.509.521.4a3.748,3.748,0,0,1,1.4-.107,6.5,6.5,0,0,0,2.772-.4,12.856,12.856,0,0,0,2.926-1.3c.367-.225.723-.438,1.09-.651a5.02,5.02,0,0,0,1.623-1.575,6.318,6.318,0,0,1,.379-.545,5.55,5.55,0,0,0,1.03-3.222,7.232,7.232,0,0,0-.012-1.824,2.771,2.771,0,0,0-.225-.829,2.118,2.118,0,0,1,.3-2.31A34.68,34.68,0,0,1,37.676,14.8a5.887,5.887,0,0,1,.995-.817c1.078-.687,1.966-1.682,3.02-2.416.107-.071.2-.166.308-.225.9-.474,1.777-.983,2.63-1.54.047-.036.118-.024.178-.036-.036.628-.3,1.125-1.575,3.293a17.233,17.233,0,0,1-2.156,3.02,33.781,33.781,0,0,1-2.606,2.44,10.692,10.692,0,0,1-2.961,2c.32.343.592.2.876.095,1.113-.426,2.215-.876,3.34-1.244a24.822,24.822,0,0,0,2.63-1.184c.308-.142.616-.261.912-.415a14.719,14.719,0,0,0,4.844-3.861c.628-.758,1.279-1.492,1.871-2.3.036-.059.095-.095.118-.154.545-1.291,1.492-2.31,2.108-3.553a7.82,7.82,0,0,1,.9-1.4c.545-.7.995-1.469,1.5-2.191a11.749,11.749,0,0,1,3.364-3.3c.379-.237.77-.45,1.149-.675.071-.047.142-.107.118-.213A.151.151,0,0,0,59.056,0,16.683,16.683,0,0,0,54.8.548a17.126,17.126,0,0,0-3.672,1.611,8.034,8.034,0,0,0-2.807,2.558c-.083.13-.166.261-.261.391a.305.305,0,0,1-.438.083,20.572,20.572,0,0,1-1.871-1.173A11.81,11.81,0,0,0,42.746,2.49c-.486-.154-.936-.415-1.421-.557a14.144,14.144,0,0,0-7.273-.142,9.467,9.467,0,0,0-1.066.367,26.381,26.381,0,0,0-7.237,4.157,58.8,58.8,0,0,0-4.56,4.039.613.613,0,0,1-.817.178,16.981,16.981,0,0,0-1.99-.794,5.319,5.319,0,0,1-1.54-1.03,12.479,12.479,0,0,1-1.41-1.635,6.141,6.141,0,0,1-.557-1.03A8.432,8.432,0,0,0,12.72,3.852a5.366,5.366,0,0,0-1.789-.924A14.073,14.073,0,0,0,6.584,2.04a8.848,8.848,0,0,0-1.824.284A11.459,11.459,0,0,1,3.481,2.5a7.457,7.457,0,0,0-1.907.557c-.355.13-.7.284-1.054.391a.634.634,0,0,0-.438.924C.709,5.439,1.017,6.683,1.55,7.8a7.918,7.918,0,0,0,1.4,1.99,23.891,23.891,0,0,0,1.706,1.753,5.6,5.6,0,0,0,2.937,1.445c.557.071,1.113.213,1.682.272a6.568,6.568,0,0,0,4.051-1.1,12.994,12.994,0,0,0,1.563-1.232,1.148,1.148,0,0,1,1.149-.261,8.664,8.664,0,0,0,2.4.332A2.92,2.92,0,0,1,19.874,11.137ZM42.9,10.165a.42.42,0,0,1-.284.355c-.853.509-1.729.971-2.558,1.54-1.706,1.173-3.447,2.286-5.141,3.47a28.625,28.625,0,0,1-6.941,3.589,25.7,25.7,0,0,1-3.423,1.125,26.767,26.767,0,0,1-5.674.261,12.6,12.6,0,0,1-3.222-.675c-.32-.083-.64-.059-.948-.154-1.09-.32-2.037-.959-3.091-1.35a1.965,1.965,0,0,1-.592-.45c-.154-.142-.095-.284.083-.343a.405.405,0,0,1,.237-.012A4.463,4.463,0,0,0,13.7,17.26a1.764,1.764,0,0,1,.545-.142,7.264,7.264,0,0,0,2.31-.663c.782-.272,1.516-.711,2.3-1.019.888-.355,1.765-.77,2.641-1.161,1.706-.782,3.364-1.729,5.081-2.487A51.981,51.981,0,0,1,32.311,9.7a19.8,19.8,0,0,1,6.74-.865c1.5.071,3,.332,4.5.284.107,0,.213.036.2.178-.012.118-.118.178-.213.213-1.019.343-2.049.651-3.08.959s-2.085.509-3.127.77c-1.8.462-3.6.936-5.389,1.469a26.688,26.688,0,0,0-4.217,1.765,29.635,29.635,0,0,1-4.738,2.108,27.669,27.669,0,0,1-3.743.782,24.924,24.924,0,0,1-2.807.237c-.651.024-1.3.095-1.954.107-.13,0-.343,0-.332.2s.2.154.343.154a.229.229,0,0,0,.118-.036,5.987,5.987,0,0,1,1.575-.249,34.578,34.578,0,0,0,4.927-.509c.391-.095.794-.166,1.2-.272a18.8,18.8,0,0,0,3.328-1.161,9.917,9.917,0,0,0,1.623-.817,2.669,2.669,0,0,1,.711-.4c1.3-.415,2.487-1.173,3.8-1.587,1.386-.438,2.783-.758,4.169-1.2s2.831-.723,4.252-1.078c.486-.118.959-.237,1.433-.391A2.7,2.7,0,0,1,42.9,10.165Zm-27.7-.19a.3.3,0,0,1-.142.332c-.4.332-.782.687-1.2.983a8.012,8.012,0,0,1-3.506,1.635A5.978,5.978,0,0,1,8.894,12.9a6.218,6.218,0,0,1-4.063-1.658c-.3-.3-.58-.6-.9-.876A8.377,8.377,0,0,1,1.491,6.9,11.377,11.377,0,0,1,.769,4.847c-.024-.13-.095-.272.024-.379s.225,0,.343.047c.415.142.663.557,1.03.782A5.147,5.147,0,0,1,3.647,6.932,6.476,6.476,0,0,0,5.518,8.744a9.249,9.249,0,0,0,2.843,1.41,12.363,12.363,0,0,0,2.25.509.747.747,0,0,0,.426-.012c.071-.036.166-.083.154-.178s-.083-.142-.178-.142a4.25,4.25,0,0,1-1.445-.178,11.676,11.676,0,0,1-2.712-.936c-.687-.355-1.279-.9-1.943-1.315a2.082,2.082,0,0,1-.6-.64A12.363,12.363,0,0,0,1.787,4.527c-.225-.178-.474-.32-.723-.486C.97,3.983.887,3.923.887,3.793a.242.242,0,0,1,.19-.237c.557-.178,1.066-.474,1.635-.628,1.149-.3,2.31-.379,3.459-.58a1.013,1.013,0,0,1,.817.2c.723.64,1.516,1.173,2.191,1.871a21.878,21.878,0,0,0,3.115,3,1.916,1.916,0,0,1,.213.225,4.134,4.134,0,0,0,2.073,1.41,3.743,3.743,0,0,1,.509.19c.083.036.154.095.118.19a.189.189,0,0,1-.19.142,5.889,5.889,0,0,1-2.547-.533c-.545-.3-1.1-.545-1.646-.829-.083-.047-.178-.13-.272.071.438.379,1.019.474,1.469.829a4.789,4.789,0,0,0,1.528.628C14.106,9.9,14.686,9.834,15.2,9.976ZM49.734,7.6a2.306,2.306,0,0,0-.628.995,14.282,14.282,0,0,1-2.4,3.731,18.222,18.222,0,0,0-1.3,1.563,8.685,8.685,0,0,1-2.12,2.1c-1.149.817-2.357,1.528-3.542,2.274a4.843,4.843,0,0,1-.616.272c-.012-.272.154-.32.249-.415.545-.533,1.161-.971,1.682-1.5a15.618,15.618,0,0,0,2.037-2.594c1.007-1.6,1.8-3.34,2.866-4.9a1.407,1.407,0,0,0,.154-.3,7.291,7.291,0,0,1,1.41-2.476A21.9,21.9,0,0,1,49.675,3.6a6.69,6.69,0,0,1,1.658-1.291,20.472,20.472,0,0,1,2.724-1.291c.888-.272,1.8-.415,2.689-.687A2.511,2.511,0,0,1,57.48.3c.107,0,.213.012.261.13s-.036.225-.118.284c-.3.261-.592.509-.888.758a11.646,11.646,0,0,0-2.215,2.3c-1.042,1.563-2.073,3.139-3.068,4.75-1.054,1.706-1.907,3.6-3.411,4.939-.059.059-.107.142-.166.213a12.557,12.557,0,0,1-3.127,2.914,20.752,20.752,0,0,1-4.572,2.25,1.281,1.281,0,0,1-.817.071c1.09-.723,2.049-1.4,3.032-2.014a11.239,11.239,0,0,0,3.672-3.423A11.479,11.479,0,0,1,47.2,12.1,13.38,13.38,0,0,0,49.734,7.6ZM4.63,30.775a14.2,14.2,0,0,0,2.061-2.7q1.048-1.67,2.2-3.234a4.963,4.963,0,0,1,1.516-1.5c.118-.071.237-.154.178-.308-.083-.213-.249-.095-.355-.012a2.374,2.374,0,0,0-.5.415c-.32.379-.663.723-.983,1.125-.58.723-1.09,1.492-1.611,2.25-.616.865-1.137,1.8-1.789,2.653-.32.426-.711.77-1.054,1.161-.059.059-.118.13-.213.071s-.071-.154-.059-.237a3.313,3.313,0,0,1,.071-.332,19,19,0,0,1,.723-2.5,15.94,15.94,0,0,1,1.836-3.873,4.082,4.082,0,0,1,1.469-1.54c.308-.166.64-.3.948-.462a4.385,4.385,0,0,1,2.393-.486,1.732,1.732,0,0,1,1.007.19,3.2,3.2,0,0,1,1.469,2.1,3.86,3.86,0,0,1-1.22,3.589,12.232,12.232,0,0,1-2.073,1.516,1.312,1.312,0,0,1-.343.166,32.209,32.209,0,0,0-4.252,1.658A1.691,1.691,0,0,1,4.63,30.775Zm42.025-24.1a3.294,3.294,0,0,1-.533,1.149A1.7,1.7,0,0,1,44.5,8.874a12.189,12.189,0,0,1-2.629-.059,23.032,23.032,0,0,0-2.558-.2,19.921,19.921,0,0,0-5.484.426A44.717,44.717,0,0,0,27.075,11.2c-.308.118-.616.272-.912.415-.166.071-.332.095-.4-.142s.107-.308.261-.379a1.229,1.229,0,0,1,.118-.047,9.454,9.454,0,0,0,1.966-.817c2.025-.924,4.11-1.623,6.159-2.452A29.239,29.239,0,0,1,37.83,6.719a22.181,22.181,0,0,1,5.034-.734c1.149-.024,2.262.249,3.4.213A.435.435,0,0,1,46.654,6.671ZM16.617,9.4c-.616-.213-1.244-.4-1.86-.628a4.818,4.818,0,0,1-1.931-1.3c-.118-.13-.2-.3-.343-.367a15.071,15.071,0,0,1-2.452-2.239c-.64-.545-1.22-1.2-1.824-1.824-.13-.142-.438-.237-.308-.486s.426-.118.616-.047a19.039,19.039,0,0,1,2.949.959,8.482,8.482,0,0,1,2.76,2.274c.367.474.569,1.09.936,1.54a7.893,7.893,0,0,0,1.623,1.753c.083.059.178.142.107.272A.254.254,0,0,1,16.617,9.4ZM6.632,30.68c.059-.19.166-.2.261-.261a22.384,22.384,0,0,1,2.9-1.149,10.651,10.651,0,0,0,1.706-.805,10.16,10.16,0,0,0,1.149-.817C11.926,29.484,8.681,31.071,6.632,30.68ZM18.453,10.533a.12.12,0,0,1-.083-.154.15.15,0,0,1,.107-.047.1.1,0,0,1,.083.142C18.547,10.509,18.488,10.509,18.453,10.533Z" transform="translate(0.037 0)"/>
      </g>
    </g>
  </g>
</svg>
