<?xml version="1.0" encoding="utf-8"?>
<!-- Generator: Adobe Illustrator 24.1.0, SVG Export Plug-In . SVG Version: 6.00 Build 0)  -->
<svg version="1.1" id="Layer_1" xmlns="http://www.w3.org/2000/svg" xmlns:xlink="http://www.w3.org/1999/xlink" x="0px" y="0px"
	 viewBox="0 0 220 66" style="enable-background:new 0 0 220 66;" xml:space="preserve">
<style type="text/css">
	.st0{enable-background:new    ;}
	.st1{fill:#FFFFFF;}
</style>
<g class="st0">
	<path class="st1" d="M25.6,35.4L25.1,39h-6.6l-4.2,10.3h-3.6L14.9,39H9.3L5.1,49.4H1.4l4.2-10.3H0.7l0.4-3.6h6l2.8-6.9H4.6L5,24.9
		h6.4l3.8-9.5h3.6L15,24.9h5.6l3.8-9.5H28l-3.8,9.5h5.6l-0.5,3.6h-6.6L20,35.4H25.6z M10.8,35.4h5.6l2.8-6.9h-5.6L10.8,35.4z"/>
	<path class="st1" d="M46.8,62.2c-1.8,0-3.3-0.6-4.6-1.7c-1.3-1.1-1.9-2.8-1.9-5.1s1.1-4.4,3.3-6.4c-3.9-0.5-6.7-2-8.5-4.5
		c-1.8-2.4-2.7-5.6-2.7-9.5s0.7-7.5,2.1-10.9c1.4-3.4,3.5-6.2,6.4-8.4c2.8-2.2,5.9-3.3,9.1-3.3c3.3,0,5.9,0.8,7.7,2.4
		c1.9,1.6,2.8,3.8,2.8,6.5c0,2.8-0.8,5-2.4,6.6c-1.6,1.7-3.6,2.5-5.8,2.5s-3.9-0.5-5.2-1.5c-1.2-1-1.8-2-1.8-3.1s0.4-2,1.3-2.6
		c0.9-0.6,2.2-0.9,3.9-0.9c-0.4,0.4-0.6,1-0.6,1.7s0.2,1.3,0.6,1.8c0.4,0.5,1,0.8,1.9,0.8c0.8,0,1.6-0.4,2.4-1.3
		c0.8-0.9,1.1-2.1,1.1-3.7s-0.4-2.8-1.2-3.6s-2-1.3-3.6-1.3c-2.2,0-4.2,0.9-5.9,2.6c-1.8,1.8-3.1,4-4.1,6.7
		c-0.9,2.7-1.4,5.6-1.4,8.6c0,2.6,0.6,4.9,1.7,6.9c0.6,1,1.4,1.8,2.6,2.4c1.1,0.6,2.3,0.9,3.4,0.9s2,0,2.7-0.1l1.2-10.5H58L56.9,42
		c3.5-1.8,5.7-3.8,6.8-6l1.9,2.6c-2.1,3.2-5.2,5.6-9.2,7.3l-0.6,5.2c-0.3,2.3-0.7,4.3-1.4,5.9c-0.7,1.6-1.5,2.7-2.4,3.4
		s-1.8,1.1-2.5,1.4C48.5,62.1,47.7,62.2,46.8,62.2z M44.5,55.3c0,0.6,0.2,1.1,0.5,1.5c0.4,0.4,0.8,0.6,1.2,0.6
		c0.5,0,0.8-0.1,1.1-0.2c0.3-0.2,0.5-0.6,0.8-1.2s0.5-1.6,0.7-2.8l0.5-3.9C46.1,51.2,44.5,53.2,44.5,55.3z"/>
	<path class="st1" d="M66.2,26.4c0.9-0.3,1.8-0.5,2.7-0.5c0.9,0,1.7,0.1,2.3,0.3c-1.2,9.6-1.9,14.5-1.9,14.6
		c-0.2,0.6-0.2,1.2-0.2,1.6s0,0.8,0.1,1.1c0.1,0.8,0.7,1.2,1.8,1.2c1,0,2-0.7,2.9-2c0.9-1.4,1.5-2.9,2-4.6c0.2,0.1,0.6,0.5,1.1,1.2
		c0.5,0.6,0.8,1.1,0.9,1.4c-0.6,2.6-1.7,4.6-3.3,6.2c-1.5,1.6-3.4,2.4-5.5,2.4s-3.7-0.5-4.8-1.6c-1-1.1-1.6-2.4-1.6-4.1
		c0-0.4,0-0.7,0-1.1l1.7-14.8C64.7,27.2,65.3,26.7,66.2,26.4z M66.3,13.6c0.7-0.8,1.6-1.1,2.7-1.1s2,0.4,2.7,1.1
		c0.8,0.8,1.1,1.7,1.1,2.7c0,1.1-0.4,2-1.1,2.7c-0.8,0.7-1.7,1.1-2.7,1.1s-2-0.4-2.7-1.1s-1.1-1.6-1.1-2.7
		C65.2,15.3,65.6,14.4,66.3,13.6z"/>
	<path class="st1" d="M103.9,12.8c0.7-0.3,1.6-0.4,2.8-0.4c1.2,0,2.3,0.1,3.3,0.2c-1,7.4-1.8,14-2.3,20c-0.6,6-0.9,9.1-0.9,9.4
		c0,0.3-0.1,0.6-0.1,0.9c0,0.8,0.4,1.2,1.2,1.2c1.9,0,4.6-2.2,8-6.6c0.6,1.7,1,2.8,1.1,3.4c-1.5,2.4-3.4,4.4-5.5,6
		c-2.2,1.6-4.2,2.3-6.1,2.3s-3.2-0.5-4-1.5c-0.7-1-1.1-2.1-1.1-3.3c0-0.3,0-0.8,0.1-1.7c0.1-0.8,0.7-6,1.9-15.6l-7.9,18.2h-4.1
		l-2.4-17.9l-3.4,14.9c-0.5,2.4-1.4,4.1-2.7,5.2c-1.2,1.1-2.6,1.7-4.1,1.7s-2.7-0.4-3.6-1.3c-1-0.9-1.5-2.2-1.5-3.9
		c0-3.4,2.6-6.3,7.9-8.7c2.8-13.7,4.4-21.2,4.6-22.7c0.8-0.2,1.8-0.3,3.1-0.3s2.2,0,2.7,0.1h0.3l3,22.3l9.6-21.8L103.9,12.8
		L103.9,12.8z M76.1,43.3c0,1,0.4,1.5,1.2,1.5c0.5,0,1-0.4,1.3-1.3c0.4-1.1,0.8-2.4,1.1-4.2C77.3,40.7,76.1,42,76.1,43.3z"/>
	<path class="st1" d="M116.2,26.4c0.9-0.3,1.8-0.5,2.7-0.5c0.9,0,1.7,0.1,2.3,0.3c-1.2,9.6-1.9,14.5-1.9,14.6
		c-0.2,0.6-0.2,1.2-0.2,1.6s0,0.8,0.1,1.1c0.1,0.8,0.7,1.2,1.8,1.2c1,0,2-0.7,2.9-2c0.9-1.4,1.5-2.9,2-4.6c0.2,0.1,0.6,0.5,1.1,1.2
		c0.5,0.6,0.8,1.1,0.9,1.4c-0.6,2.6-1.7,4.6-3.3,6.2c-1.5,1.6-3.4,2.4-5.5,2.4s-3.7-0.5-4.8-1.6s-1.6-2.4-1.6-4.1c0-0.4,0-0.7,0-1.1
		l1.7-14.8C114.7,27.2,115.3,26.7,116.2,26.4z M116.3,13.6c0.7-0.8,1.6-1.1,2.7-1.1s2,0.4,2.7,1.1c0.8,0.8,1.1,1.7,1.1,2.7
		c0,1.1-0.4,2-1.1,2.7c-0.8,0.7-1.7,1.1-2.7,1.1s-2-0.4-2.7-1.1s-1.1-1.6-1.1-2.7C115.2,15.3,115.6,14.4,116.3,13.6z"/>
	<path class="st1" d="M140.7,44.8c0.4,0.1,0.7,0.2,1.2,0.2c0.4,0,0.8,0,1.2-0.1s0.8-0.3,1.1-0.7s0.6-0.7,0.8-0.9s0.4-0.7,0.7-1.5
		c0.4-0.9,0.8-2.2,1.3-3.8c1.3,1.2,2.1,2.2,2.4,2.8c-1.5,5.6-4.2,8.4-8.1,8.4c-1.8,0-4.1-1.2-7-3.6c-1.5,2.4-3.8,3.6-6.9,3.6
		c-1.4,0-2.6-0.5-3.7-1.4s-1.7-2.3-1.7-4s0.6-3.1,1.7-4.2c1.2-1.1,2.6-1.7,4.5-1.7c0.4,0,0.8,0,1.5,0.1l0.7-6.1
		c-1.4,0.4-3.6,1-6.5,1.7V30c2.4-0.5,4.7-1.2,6.9-1.8l1-7.8c0.7-5.3,3.4-8,8.2-8c1.9,0,3.4,0.5,4.5,1.6c1.1,1,1.7,2.5,1.7,4.4
		c0,4.5-2.9,8.2-8.8,11L136,40.7v0.5C138.3,43.3,139.9,44.5,140.7,44.8z M125.8,43.6c0,1,0.5,1.4,1.6,1.4s1.7-0.9,2-2.8
		c-0.6-0.3-1.2-0.4-1.7-0.4s-1,0.2-1.3,0.5C126,42.7,125.8,43.1,125.8,43.6z M142.7,18.8c0-1.3-0.6-2-1.7-2c-1.3,0-2.2,1.6-2.5,4.8
		l-0.5,3.8C141.1,23.5,142.7,21.3,142.7,18.8z"/>
	<path class="st1" d="M158.6,25.9c2.9,0,5.4,0.9,7.4,2.8s3,4.2,3,6.9c0,4.1-1.2,7.4-3.6,9.9c-2.4,2.5-5.3,3.7-8.8,3.7
		s-6.1-1-8.1-2.9s-3-4.4-3-7.2c0-4,1.2-7.2,3.7-9.6C151.6,27.1,154.8,25.9,158.6,25.9z M157.7,29.8c-1.5,0-2.8,0.9-3.8,2.6
		c-1,1.7-1.6,3.9-1.7,6.5c0,1.9,0.4,3.4,1.1,4.6c0.8,1.2,1.9,1.8,3.4,1.8s2.8-0.8,3.9-2.5c1-1.7,1.6-3.6,1.6-5.8s-0.4-3.9-1.1-5.2
		C160.3,30.5,159.2,29.8,157.7,29.8z"/>
	<path class="st1" d="M189,40.4c-1,2.6-2.4,4.7-4.3,6.4c-1.9,1.6-4,2.5-6.4,2.5s-4.2-0.8-5.4-2.4c-1.2-1.6-1.8-3.4-1.8-5.4
		c0-0.4,0-0.8,0-1.2l1.6-13.7c1-0.4,2.1-0.6,3.3-0.6c2.1,0,3.2,0.8,3.2,2.4c0,0.1-0.3,2.2-0.8,6.4s-0.8,6.6-0.8,7.3
		c0,1.8,0.9,2.7,2.6,2.7c1.5,0,2.8-0.8,3.8-2.5c1.8-3.1,2.7-6.5,2.8-10.4h-0.4c-1.3,0-2.4-0.3-3.1-0.9c-0.8-0.7-1.2-1.6-1.2-2.5
		c0-1,0.3-1.8,0.9-2.4c0.7-0.6,1.6-1,2.6-1c2.4,0,4,1.3,4.6,3.8c1-0.1,1.6-0.3,2.1-0.4v2.7l-1.8,0.3v0.8
		C190.6,35.1,190.1,37.8,189,40.4z M184.9,28.3c0,0.5,0.5,0.8,1.4,0.8c0.1,0,0.2,0,0.3,0c-0.2-0.9-0.6-1.3-1-1.3
		S184.9,28,184.9,28.3z"/>
	<path class="st1" d="M206.1,35.8c1-1.2,1.5-2.3,1.5-3.4c0-1.1-0.3-1.9-0.9-2.3c-0.6-0.4-1.2-0.6-1.9-0.6c-1.5,0-2.8,0.8-4,2.5
		c-1.1,1.7-1.7,3.7-1.7,6s0.6,4,1.7,5.2c1.1,1.1,2.5,1.7,4.1,1.7c2.4,0,4.7-0.8,6.9-2.5s4-3.8,5.4-6.5c0.7,0.7,1.3,1.5,1.9,2.5
		c-1.1,2.4-2.9,4.8-5.6,7.1c-1.3,1.1-2.9,2-4.8,2.7c-1.8,0.7-3.7,1.1-5.7,1.1c-3.2,0-5.7-1-7.6-2.9c-2-2.1-3-4.8-3-8.1
		s1.2-6.2,3.7-8.6c2.5-2.5,5.4-3.7,8.9-3.7c2.5,0,4.5,0.5,6,1.6s2.3,2.5,2.4,4.3c0,2.5-1,4.5-3,6s-4.7,2.6-8.1,3.2l-0.7-2.8
		C203.7,37.8,205.2,37,206.1,35.8z"/>
</g>
</svg>
