<svg xmlns="http://www.w3.org/2000/svg" width="87.522" height="76.436" viewBox="0 0 87.522 76.436">
  <g id="Group_13" data-name="Group 13" transform="translate(-571.5 -3163.786)">
    <path id="heart" d="M186.622,174.473a22.93,22.93,0,0,1-6.741,16.332l-37.02,37.031-37.02-37.02a23.1,23.1,0,0,1,32.675-32.675l4.345,4.345,4.345-4.345a23.064,23.064,0,0,1,39.416,16.332Z" transform="translate(472.4 3012.386)" fill="#f77f84"/>
    <path id="location" d="M16.257,23.9l.071.1c.087.13.177.256.268.394L26.861,39.142a1.6,1.6,0,0,0,2.631,0L39.734,24.406c.1-.138.193-.272.288-.394l.063-.095h0a14.181,14.181,0,1,0-23.82,0ZM28.177,10.32a5.909,5.909,0,1,1-5.909,5.909,5.909,5.909,0,0,1,5.909-5.909Z" transform="translate(587.006 3181.106)" fill="#fff"/>
  </g>
</svg>
